<svg width="26" height="26" viewBox="0 0 26 26" fill="none" xmlns="http://www.w3.org/2000/svg">
<g clip-path="url(#clip0_87_221)">
<path d="M-6.09766 32.4687H31.0452V-6.53125H-6.09766V32.4687Z" fill="black"/>
<path d="M22.559 18.3689C22.559 19.9939 22.1096 21.3031 21.2119 22.1936C20.3118 23.0854 19.0651 23.5585 17.567 23.5585H7.38242C5.88432 23.5585 4.63632 23.0854 3.73746 22.1936C2.83985 21.2511 2.38794 19.9406 2.38794 18.3156V7.56855C2.38794 5.99555 6.42908 0.91255 7.3267 -0.03125C2.98718 -0.02865 0.09375 3.01075 0.09375 7.56855V18.3143C0.09375 20.5685 0.792036 22.5094 2.18985 23.9238C3.53813 25.2862 5.33461 25.9687 7.38242 25.9687H17.567C19.7126 25.9687 21.5103 25.2342 22.8078 23.9238C24.1561 22.5614 24.8557 20.6218 24.8557 18.3676V7.56855C24.8557 5.36765 24.1561 3.48005 22.8586 2.11765C21.5611 0.70195 19.7114 -0.03125 17.6165 -0.03125H7.33042L3.73746 3.74395C4.5868 2.85215 5.88432 2.38025 7.38242 2.38025H17.666C19.1641 2.38025 20.4121 2.85215 21.311 3.79725C22.1603 4.73975 22.658 6.05015 22.658 7.56985V18.3689H22.559ZM19.0143 7.72585C19.2079 7.7318 19.4006 7.6969 19.5811 7.62324C19.7615 7.54957 19.9261 7.43863 20.065 7.29699C20.2039 7.15535 20.3143 6.98588 20.3897 6.79861C20.4651 6.61135 20.504 6.41011 20.504 6.2068C20.504 6.00349 20.4651 5.80225 20.3897 5.61499C20.3143 5.42772 20.2039 5.25825 20.065 5.11661C19.9261 4.97497 19.7615 4.86403 19.5811 4.79036C19.4006 4.7167 19.2079 4.6818 19.0143 4.68775C18.638 4.69931 18.2807 4.86442 18.0184 5.14804C17.756 5.43165 17.6093 5.81145 17.6093 6.2068C17.6093 6.60215 17.756 6.98194 18.0184 7.26556C18.2807 7.54918 18.638 7.71429 19.0143 7.72585V7.72585ZM12.4747 17.2678C11.3903 17.2627 10.3517 16.8081 9.58494 16.003C8.81815 15.1979 8.38521 14.1074 8.38032 12.9687C8.38521 11.8301 8.81815 10.7396 9.58494 9.93449C10.3517 9.12937 11.3903 8.67478 12.4747 8.66965C13.5591 8.67478 14.5977 9.12937 15.3645 9.93449C16.1313 10.7396 16.5642 11.8301 16.5691 12.9687C16.5639 14.1071 16.1308 15.1973 15.364 16.0022C14.5973 16.807 13.5589 17.2614 12.4747 17.2665V17.2678ZM12.4747 6.25945C8.9808 6.25945 6.08489 9.24685 6.08489 12.9687C6.08261 13.8505 6.24632 14.724 6.56663 15.5391C6.88694 16.3542 7.35752 17.0948 7.95132 17.7183C8.54513 18.3418 9.25044 18.8359 10.0267 19.1722C10.803 19.5085 11.6349 19.6805 12.4747 19.678C16.0194 19.678 18.8633 16.6374 18.8633 12.9701C18.8633 9.29885 15.9686 6.25945 12.4747 6.25945V6.25945Z" fill="white"/>
</g>
<defs>
<clipPath id="clip0_87_221">
<rect width="26" height="26" fill="white"/>
</clipPath>
</defs>
</svg>
