<svg width="26" height="26" viewBox="0 0 26 26" fill="none" xmlns="http://www.w3.org/2000/svg">
<g clip-path="url(#clip0_87_227)">
<path d="M26.0001 3.07645C25.0456 3.60145 24.0149 3.95125 22.9386 4.10745C24.0403 3.29515 24.8831 2.00795 25.2843 0.476953C24.2535 1.22675 23.1112 1.77665 21.8978 2.07035C20.9228 0.795453 19.5366 0.00195312 18.0035 0.00195312C15.0588 0.00195312 12.6726 2.93895 12.6726 6.56315C12.6726 7.07555 12.7183 7.57545 12.8096 8.05665C8.37728 7.78165 4.44771 5.16965 1.81764 1.19545C1.36069 2.16415 1.09671 3.29515 1.09671 4.49485C1.09671 6.76945 2.03596 8.78155 3.46775 9.95635C2.59431 9.92495 1.7719 9.62505 1.05097 9.13765V9.21885C1.05097 12.3995 2.88884 15.0552 5.33098 15.6551C4.8841 15.8051 4.41204 15.8863 3.92454 15.8863C3.57939 15.8863 3.24935 15.8425 2.91931 15.7675C3.5997 18.3732 5.56969 20.2729 7.89994 20.3291C6.07222 22.0913 3.77731 23.1411 1.27433 23.1411C0.842888 23.1411 0.421363 23.1098 0 23.0473C2.366 24.9157 5.16856 25.9967 8.17928 25.9967C17.9883 25.9967 23.3548 15.9924 23.3548 7.31905C23.3548 7.03165 23.3497 6.75045 23.3396 6.46925C24.3804 5.55085 25.2843 4.39485 26.0001 3.07645Z" fill="white"/>
</g>
<defs>
<clipPath id="clip0_87_227">
<rect width="26" height="26" fill="white"/>
</clipPath>
</defs>
</svg>
