<svg width="21" height="20" viewBox="0 0 21 20" fill="none" xmlns="http://www.w3.org/2000/svg">
<g clip-path="url(#clip0_87_45)">
<path d="M18.2192 14.1306C18.2192 15.3806 17.8562 16.3876 17.1312 17.0726C16.4042 17.7586 15.3972 18.1226 14.1872 18.1226H5.96122C4.75122 18.1226 3.74322 17.7586 3.01722 17.0726C2.29222 16.3476 1.92722 15.3396 1.92722 14.0896V5.82256C1.92722 4.61256 5.19122 0.702563 5.91622 -0.0234375C2.41122 -0.0214375 0.0742188 2.31656 0.0742188 5.82256V14.0886C0.0742188 15.8226 0.638219 17.3156 1.76722 18.4036C2.85622 19.4516 4.30722 19.9766 5.96122 19.9766H14.1872C15.9202 19.9766 17.3722 19.4116 18.4202 18.4036C19.5092 17.3556 20.0742 15.8636 20.0742 14.1296V5.82256C20.0742 4.12956 19.5092 2.67756 18.4612 1.62956C17.4132 0.540563 15.9192 -0.0234375 14.2272 -0.0234375H5.91922L3.01722 2.88056C3.70322 2.19456 4.75122 1.83156 5.96122 1.83156H14.2672C15.4772 1.83156 16.4852 2.19456 17.2112 2.92156C17.8972 3.64656 18.2992 4.65456 18.2992 5.82356V14.1306H18.2192ZM15.3562 5.94356C15.5125 5.94814 15.6682 5.9213 15.814 5.86463C15.9597 5.80797 16.0926 5.72263 16.2048 5.61367C16.317 5.50471 16.4062 5.37435 16.4671 5.2303C16.528 5.08626 16.5594 4.93146 16.5594 4.77506C16.5594 4.61867 16.528 4.46387 16.4671 4.31982C16.4062 4.17577 16.317 4.04541 16.2048 3.93645C16.0926 3.8275 15.9597 3.74216 15.814 3.68549C15.6682 3.62883 15.5125 3.60199 15.3562 3.60656C15.0522 3.61546 14.7637 3.74247 14.5518 3.96063C14.3399 4.1788 14.2214 4.47094 14.2214 4.77506C14.2214 5.07918 14.3399 5.37133 14.5518 5.58949C14.7637 5.80766 15.0522 5.93467 15.3562 5.94356V5.94356ZM10.0742 13.2836C9.19836 13.2796 8.35951 12.9299 7.74018 12.3106C7.12085 11.6913 6.77117 10.8524 6.76722 9.97656C6.77117 9.10071 7.12085 8.26185 7.74018 7.64252C8.35951 7.02319 9.19836 6.67351 10.0742 6.66956C10.9501 6.67351 11.7889 7.02319 12.4083 7.64252C13.0276 8.26185 13.3773 9.10071 13.3812 9.97656C13.377 10.8522 13.0272 11.6908 12.4079 12.31C11.7886 12.9291 10.9499 13.2786 10.0742 13.2826V13.2836ZM10.0742 4.81556C7.25222 4.81556 4.91322 7.11356 4.91322 9.97656C4.91137 10.6548 5.0436 11.3268 5.30231 11.9538C5.56102 12.5808 5.94111 13.1504 6.42072 13.6301C6.90033 14.1097 7.47001 14.4898 8.09701 14.7485C8.724 15.0072 9.39595 15.1394 10.0742 15.1376C12.9372 15.1376 15.2342 12.7986 15.2342 9.97756C15.2342 7.15356 12.8962 4.81556 10.0742 4.81556V4.81556Z" fill="black"/>
</g>
<defs>
<clipPath id="clip0_87_45">
<rect width="21" height="20" fill="white"/>
</clipPath>
</defs>
</svg>
